<svg width="291" height="86" viewBox="0 0 291 86" fill="none" xmlns="http://www.w3.org/2000/svg">
<g clip-path="url(#clip0_22_19)" fill="#FFFFFF">
<path d="M28.9686 74.5352V57.3437H8.03235V74.5352H0V32.02H8.03235V49.9351H28.9686V32.02H36.9415V74.5352H28.9686Z"/>
<path d="M76.2762 74.473H44.3847V31.9578H76.2762V39.731H52.3576V49.5111H75.4237V56.9819H52.3576V66.5783H76.2762V74.473Z"/>
<path d="M90.5367 31.9578V67.0616H112.442V74.473H82.5044V31.9578H90.5367Z"/>
<path d="M126.156 31.9578V67.0616H148.063V74.473H118.123V31.9578H126.156Z"/>
<path d="M194.334 53.4571C194.21 64.4498 187.457 75.4426 172.486 75.4426C157.515 75.4426 150.575 64.6929 150.575 53.5164C150.575 42.34 157.758 31.1042 172.486 31.1042C187.214 31.1042 194.456 42.34 194.334 53.4543M158.489 53.6408C158.673 60.6254 162.446 68.0962 172.486 68.0962C182.526 68.0962 186.299 60.5632 186.421 53.5815C186.545 46.4131 182.526 38.3968 172.486 38.3968C162.446 38.3968 158.308 46.4753 158.489 53.6408Z"/>
<path d="M242.081 69.9335C237.459 74.4787 231.491 76.593 225.008 76.593C208.323 76.593 201.262 65.1282 201.197 53.4712C201.135 41.7492 208.77 29.835 225.008 29.835C231.103 29.835 236.881 32.1415 241.503 36.6896L235.853 42.1308C232.901 39.2505 228.919 37.905 225.008 37.905C214.163 37.905 209.476 45.975 209.541 53.4712C209.606 60.8996 213.908 68.6502 225.008 68.6502C228.922 68.6502 233.352 67.0503 236.303 64.1022L242.081 69.9335Z"/>
<path d="M268.279 38.4195H254.033V30.7339H291V38.4195H276.754V75.5698H268.279V38.4195Z"/>
<path d="M252.322 30.7339H244.262V75.5698H252.322V30.7339Z"/>
<path d="M152.416 21.6321L152.04 21.9007C151.405 22.5084 151.383 23.5232 151.992 24.1563L156.036 28.3623C156.489 28.8344 157.203 28.9701 157.803 28.7044C166.79 24.6906 177.105 24.6905 186.115 28.6959C186.698 28.9531 187.37 28.8344 187.826 28.3963L192.119 24.2835C192.49 23.9302 192.666 23.4129 192.592 22.9041C192.516 22.3925 192.204 21.9544 191.746 21.7226C179.453 15.4503 164.745 15.4164 152.414 21.6321"/>
<path d="M142.135 8.24809L141.863 8.46291C141.226 9.07063 141.203 10.0797 141.812 10.7129L145.795 14.8539C146.29 15.3683 147.075 15.4814 147.704 15.1224C162.902 6.42209 181.728 6.53798 196.844 15.4305C197.444 15.7867 198.22 15.7019 198.721 15.2185L202.885 11.233C203.242 10.891 203.415 10.4105 203.364 9.91862C203.313 9.42961 203.043 8.99431 202.63 8.73709C184.325 -2.73335 160.579 -2.92556 142.135 8.24526"/>
<path d="M150.578 81.0619H0V86.0028H150.578V81.0619Z"/>
<path d="M291 81.0619H150.578V86.0028H291V81.0619Z"/>
</g>
<defs>
<clipPath id="clip0_22_19">
<rect width="291" height="86" fill="white"/>
</clipPath>
</defs>
</svg>
